# xmcd CD database file
#
# Track frame offsets:
#	150
#	10347
#	33021
#	50547
#	65838
#	78612
#	95601
#	114342
#	135339
#	146544
#	167736
#	184158
#	205011
#
# Disc length: 2929 seconds
#
# Revision: 1
# Processed by: cddbd v1.5PL3 Copyright (c) Steve Scherf et al.
# Submitted via: CDex 1.51
#
DISCID=ad0b6f0d
DTITLE=Helen-Mari Arderi Trio - Hetk vaikust
DYEAR=2003
DGENRE=Jazz
TTITLE0=Meditatsioon
TTITLE1=Kuldkollane
TTITLE2=Kas see on ime
TTITLE3=Karikakar
TTITLE4=Õnnelik õhtu
TTITLE5=Palus pohli punetab
TTITLE6=Sinuga
TTITLE7=Sügisromanss
TTITLE8=Ei tea
TTITLE9=Öö tuleb siis
TTITLE10=Esimene lumi
TTITLE11=Hetk vaikust
TTITLE12=Väike päike
EXTD=YEAR: 2003
EXTT0=
EXTT1=
EXTT2=
EXTT3=
EXTT4=
EXTT5=
EXTT6=
EXTT7=
EXTT8=
EXTT9=
EXTT10=
EXTT11=
EXTT12=
PLAYORDER=
